<svg width="64" height="60" viewBox="0 0 64 60" fill="none" xmlns="http://www.w3.org/2000/svg">
<path fill-rule="evenodd" clip-rule="evenodd" d="M8 24V30H7C3.13401 30 0 33.134 0 37V41C0 44.866 3.13401 48 7 48H8V53C8 56.866 11.134 60 15 60H19C22.866 60 26 56.866 26 53V48H38V53C38 56.866 41.134 60 45 60H49C52.866 60 56 56.866 56 53V48H57C60.866 48 64 44.866 64 41V37C64 33.134 60.866 30 57 30H56V24C56 10.7452 45.2548 0 32 0C18.7452 0 8 10.7452 8 24ZM32 18C28.6863 18 26 20.6863 26 24V30H38V24C38 20.6863 35.3137 18 32 18ZM20 24V30H14V24C14 14.0589 22.0589 6 32 6C41.9411 6 50 14.0589 50 24V30H44V24C44 17.3726 38.6274 12 32 12C25.3726 12 20 17.3726 20 24ZM57 36C57.5523 36 58 36.4477 58 37V41C58 41.5523 57.5523 42 57 42H7C6.44772 42 6 41.5523 6 41V37C6 36.4822 6.3935 36.0564 6.89776 36.0052C6.93137 36.0017 6.96548 36 7 36H57ZM14 53V48H20V53C20 53.5523 19.5523 54 19 54H15C14.4477 54 14 53.5523 14 53ZM44 53V48H50V53C50 53.5523 49.5523 54 49 54H45C44.4477 54 44 53.5523 44 53Z" fill="#4F46E5"/>
</svg>
