<svg width="488" height="148" viewBox="0 0 488 148" fill="none" xmlns="http://www.w3.org/2000/svg">
<path d="M194.956 102.263H191.565C189.864 102.263 188.905 101.292 188.905 99.6029V70.2978C188.905 69.3274 187.695 69.0878 187.204 70.2978L181.633 82.8896C180.782 84.8305 179.453 86.2802 177.643 86.2802C175.822 86.2802 174.492 84.9503 173.654 82.8896L168.083 70.2978C167.472 69.0878 166.381 69.3274 166.381 70.2978V99.6029C166.381 101.304 165.411 102.263 163.722 102.263H160.331C158.63 102.263 157.671 101.292 157.671 99.6029V48.9959C157.671 47.2946 158.642 46.3362 160.331 46.3362H165.052C166.741 46.3362 167.951 47.5462 168.562 48.9959L176.553 68.4887C176.793 69.0878 177.152 69.6988 177.643 69.6988C178.135 69.6988 178.494 69.0878 178.734 68.4887L186.725 48.9959C187.336 47.5462 188.546 46.3362 190.235 46.3362H194.956C196.657 46.3362 197.615 47.3066 197.615 48.9959V99.6029C197.615 101.304 196.645 102.263 194.956 102.263Z" fill="#151555"/>
<path d="M231.15 103.473C219.169 103.473 211.178 94.2716 211.178 83.8602V64.7269C211.178 54.3155 219.169 45.1143 231.15 45.1143C243.131 45.1143 251.122 54.3155 251.122 64.7269V83.8602C251.134 94.2716 243.143 103.473 231.15 103.473ZM241.813 64.7388C241.813 59.2876 237.943 53.7165 231.162 53.7165C224.381 53.7165 220.511 59.2876 220.511 64.7388V83.8722C220.511 89.3235 224.381 94.8945 231.162 94.8945C237.943 94.8945 241.813 89.3235 241.813 83.8722V64.7388Z" fill="#151555"/>
<path d="M301.98 102.263H298.59C296.888 102.263 295.93 101.292 295.93 99.6029V70.2978C295.93 69.3274 294.72 69.0878 294.229 70.2978L288.658 82.8896C287.807 84.8305 286.477 86.2802 284.668 86.2802C282.859 86.2802 281.517 84.9503 280.678 82.8896L275.107 70.2978C274.496 69.0878 273.406 69.3274 273.406 70.2978V99.6029C273.406 101.304 272.436 102.263 270.746 102.263H267.356C265.655 102.263 264.696 101.292 264.696 99.6029V48.9959C264.696 47.2946 265.666 46.3362 267.356 46.3362H272.076C273.766 46.3362 274.976 47.5462 275.587 48.9959L283.578 68.4887C283.817 69.0878 284.177 69.6988 284.668 69.6988C285.159 69.6988 285.519 69.0878 285.758 68.4887L293.75 48.9959C294.361 47.5462 295.571 46.3362 297.26 46.3362H301.98C303.682 46.3362 304.64 47.3066 304.64 48.9959V99.6029C304.652 101.304 303.682 102.263 301.98 102.263Z" fill="#151555"/>
<path d="M354.049 78.2891H331.405C329.704 78.2891 328.745 79.2596 328.745 80.9489V83.8482C328.745 89.2995 332.615 94.8706 339.396 94.8706C345.686 94.8706 349.448 90.5096 351.509 87.73C352.36 86.52 353.929 86.4001 355.139 87.2508L357.799 89.1917C359.249 90.2819 359.009 91.9712 358.398 92.9417C355.487 97.6621 349.556 103.473 339.384 103.473C327.404 103.473 319.412 94.2716 319.412 83.8602V64.7269C319.412 54.3155 327.404 45.1143 339.384 45.1143C351.365 45.1143 359.356 54.3155 359.356 64.7269V72.9577C359.38 76.3602 357.439 78.2891 354.049 78.2891ZM350.047 64.7388C350.047 59.2876 346.177 53.7165 339.396 53.7165C332.615 53.7165 328.745 59.2876 328.745 64.7388V67.6382C328.745 69.3395 329.716 70.2979 331.405 70.2979H347.388C349.089 70.2979 350.047 69.3275 350.047 67.6382V64.7388Z" fill="#151555"/>
<path d="M412.647 102.263H408.658C406.956 102.263 405.998 101.292 405.998 99.603V64.7388C405.998 59.2876 402.128 53.7165 395.347 53.7165C388.566 53.7165 384.696 59.2876 384.696 64.7388V99.603C384.696 101.304 383.725 102.263 382.036 102.263H378.047C376.345 102.263 375.387 101.292 375.387 99.603V48.996C375.387 47.2948 376.357 46.3363 378.047 46.3363H381.198C382.168 46.3363 382.767 46.8155 383.138 47.4266C383.618 48.2772 384.348 48.2772 384.84 47.9058C387.02 46.5759 390.531 45.1143 395.371 45.1143C407.352 45.1143 415.343 54.3155 415.343 64.7269V99.591C415.307 101.304 414.348 102.263 412.647 102.263Z" fill="#151555"/>
<path d="M461.325 54.3154H451.273C449.572 54.3154 448.614 55.2859 448.614 56.9752V99.5909C448.614 101.292 447.643 102.251 445.954 102.251H442.084C440.383 102.251 439.424 101.28 439.424 99.5909V56.9752C439.424 55.2739 438.454 54.3154 436.765 54.3154H426.713C425.011 54.3154 424.053 53.345 424.053 51.6557V48.9959C424.053 47.2946 425.023 46.3362 426.713 46.3362H461.337C463.038 46.3362 463.997 47.3066 463.997 48.9959V51.6557C463.985 53.3569 463.014 54.3154 461.325 54.3154Z" fill="#151555"/>
<path fill-rule="evenodd" clip-rule="evenodd" d="M93.2072 30.7612C93.8302 29.1798 93.2431 27.3826 91.8174 26.4481C90.7391 25.7413 90.7391 22.7341 95.5794 24.6031C108.363 29.3834 118.283 40.7173 120.535 55.1781C121.087 58.6526 121.158 62.0791 120.811 65.4097C120.727 66.1645 121.374 66.7995 122.117 66.6797L122.44 66.6318C124.106 66.3802 125.376 64.9665 125.471 63.2652C125.543 61.9713 128.143 60.4737 128.958 65.6134C131.198 79.0679 126.346 93.3131 114.976 102.526C112.245 104.743 109.297 106.528 106.23 107.882C105.535 108.193 105.308 109.068 105.787 109.655L105.967 109.883C107.045 111.2 108.89 111.584 110.4 110.829C111.55 110.254 114.15 111.752 110.136 115.01C99.5809 123.684 84.8206 126.596 71.1625 121.36C67.8797 120.102 64.8605 118.437 62.1529 116.46C61.5419 116.017 60.6673 116.256 60.3917 116.963L60.2839 117.239C59.6609 118.82 60.2479 120.617 61.6736 121.552C62.7519 122.259 62.7519 125.266 57.8997 123.397C45.1162 118.617 35.208 107.283 32.9197 92.8338C32.3686 89.3714 32.2967 85.9449 32.6441 82.6022C32.728 81.8474 32.081 81.2125 31.3382 81.3323L31.0387 81.3802C29.3734 81.6318 28.1034 83.0455 28.0075 84.7468C27.9237 86.0287 25.3358 87.5383 24.5331 82.3986C22.2927 68.9441 27.1449 54.6989 38.5027 45.4857C41.2344 43.2692 44.1816 41.4841 47.2487 40.1302C47.9436 39.8187 48.1713 38.9441 47.692 38.3571L47.5123 38.1294C46.434 36.8115 44.589 36.4282 43.0794 37.1829C41.9293 37.77 39.3294 36.2604 43.343 33.0016C53.8981 24.3275 68.6585 21.4162 82.3166 26.6518C85.5993 27.9098 88.6185 29.5751 91.3262 31.552C91.9372 31.9953 92.8118 31.7556 93.0873 31.0488L93.2072 30.7612ZM60.188 114.064C60.7511 114.303 61.3981 114.016 61.6257 113.441L61.6377 113.405C62.4883 111.2 61.9732 107.99 59.3494 106.372C49.8126 100.466 45.4876 88.1374 49.4053 77.9058C51.8134 71.6398 56.0187 67.3147 61.3861 64.619C62.704 63.9481 63.339 64.7987 62.5842 65.6494C60.5474 67.9736 58.954 70.5974 57.72 73.6286C51.6816 88.377 58.966 105.677 73.1992 111.68C73.3909 111.764 73.5706 111.847 73.7623 111.931C74.1816 112.123 74.6129 112.303 75.0442 112.482C84.7487 116.196 95.4236 114.232 103.175 108.409C103.666 108.037 103.738 107.331 103.355 106.851L103.331 106.827C101.845 104.982 98.8142 103.832 96.0945 105.282C86.2223 110.589 73.3669 108.181 66.466 99.6629C62.2367 94.4393 60.6073 88.6286 60.9428 82.6382C61.0267 81.1406 62.081 81.0327 62.4404 82.099C63.4348 85.0224 64.9204 87.718 66.9212 90.3059C76.6856 102.91 95.3038 105.246 107.62 95.9249C107.86 95.7452 108.099 95.5655 108.339 95.3858C108.638 95.1701 108.926 94.9544 109.214 94.7268C117.277 88.1973 120.907 77.9656 119.745 68.3451C119.673 67.734 119.098 67.3147 118.487 67.4105L118.427 67.4225C116.091 67.7819 113.575 69.8427 113.479 72.9217C113.143 84.1238 104.613 94.0439 93.7942 95.7572C87.1688 96.8115 81.2982 95.3259 76.2902 92.0311C75.0562 91.2164 75.4636 90.246 76.5778 90.4616C79.597 91.0727 82.676 91.1326 85.9228 90.6893C101.702 88.5447 113.035 73.5807 111.142 58.2572C111.106 58.0056 111.083 57.754 111.059 57.5024C111.011 57.0951 110.975 56.6877 110.915 56.2684C109.297 46.0128 102.241 37.746 93.315 33.9361C92.7519 33.6965 92.1049 33.9841 91.8773 34.5591L91.8653 34.5951C91.0147 36.7996 91.5298 40.0104 94.1536 41.6278C103.69 47.5344 108.015 59.8626 104.098 70.0942C101.69 76.3602 97.4843 80.6853 92.1169 83.381C90.799 84.0519 90.164 83.2013 90.9188 82.3506C92.9556 80.0263 94.549 77.4025 95.783 74.3714C101.821 59.623 94.537 42.3227 80.3038 36.3203C80.1121 36.2365 79.9324 36.1526 79.7407 36.0687C79.3214 35.877 78.8901 35.6973 78.4588 35.5176C68.7543 31.8036 58.0794 33.7684 50.3158 39.6031C49.8246 39.9745 49.7527 40.6813 50.1361 41.1606L50.1601 41.1845C51.6457 43.0296 54.6768 44.1797 57.3965 42.7301C67.2687 37.4226 80.1241 39.8307 87.0251 48.3491C91.2543 53.5727 92.8837 59.3834 92.5482 65.3738C92.4643 66.8714 91.41 66.9792 91.0506 65.9129C90.0562 62.9896 88.5706 60.3059 86.5698 57.7061C76.8054 45.1023 58.1872 42.766 45.8709 52.0871C45.6313 52.2668 45.3917 52.4465 45.1521 52.6262C44.8526 52.8419 44.565 53.0575 44.2775 53.2852C36.2144 59.8147 32.5842 70.0463 33.7464 79.6669C33.8182 80.278 34.3933 80.6973 35.0043 80.6014L35.0403 80.5894C37.3765 80.23 39.8925 78.1693 39.9884 75.0902C40.3238 63.8762 48.8542 53.9681 59.6968 52.2428C66.3222 51.1885 72.1928 52.6741 77.2008 55.9689C78.4348 56.7836 78.0275 57.754 76.9132 57.5384C73.8941 56.9273 70.815 56.8674 67.5682 57.3107C51.7895 59.4553 40.4556 74.4193 42.3486 89.7428C42.3845 89.9944 42.4085 90.246 42.4324 90.4976C42.4804 90.9049 42.5163 91.3123 42.5882 91.7316C44.2056 101.999 51.2623 110.266 60.188 114.064Z" fill="#4F46E5"/>
</svg>
