<svg width="488" height="148" viewBox="0 0 488 148" fill="none" xmlns="http://www.w3.org/2000/svg">
<path d="M194.953 102.263H191.562C189.861 102.263 188.902 101.292 188.902 99.6029V70.2978C188.902 69.3274 187.692 69.0878 187.201 70.2978L181.63 82.8896C180.779 84.8305 179.45 86.2802 177.64 86.2802C175.819 86.2802 174.489 84.9503 173.651 82.8896L168.08 70.2978C167.469 69.0878 166.378 69.3274 166.378 70.2978V99.6029C166.378 101.304 165.408 102.263 163.719 102.263H160.328C158.627 102.263 157.668 101.292 157.668 99.6029V48.9959C157.668 47.2946 158.639 46.3362 160.328 46.3362H165.049C166.738 46.3362 167.948 47.5462 168.559 48.9959L176.55 68.4887C176.79 69.0878 177.149 69.6988 177.64 69.6988C178.132 69.6988 178.491 69.0878 178.731 68.4887L186.722 48.9959C187.333 47.5462 188.543 46.3362 190.232 46.3362H194.953C196.654 46.3362 197.612 47.3066 197.612 48.9959V99.6029C197.612 101.304 196.642 102.263 194.953 102.263Z" fill="white"/>
<path d="M231.147 103.473C219.166 103.473 211.175 94.2716 211.175 83.8602V64.7269C211.175 54.3155 219.166 45.1143 231.147 45.1143C243.127 45.1143 251.119 54.3155 251.119 64.7269V83.8602C251.131 94.2716 243.139 103.473 231.147 103.473ZM241.81 64.7388C241.81 59.2876 237.94 53.7165 231.159 53.7165C224.377 53.7165 220.508 59.2876 220.508 64.7388V83.8722C220.508 89.3235 224.377 94.8945 231.159 94.8945C237.94 94.8945 241.81 89.3235 241.81 83.8722V64.7388Z" fill="white"/>
<path d="M301.977 102.263H298.587C296.886 102.263 295.927 101.292 295.927 99.6029V70.2978C295.927 69.3274 294.717 69.0878 294.226 70.2978L288.655 82.8896C287.804 84.8305 286.474 86.2802 284.665 86.2802C282.856 86.2802 281.514 84.9503 280.675 82.8896L275.104 70.2978C274.493 69.0878 273.403 69.3274 273.403 70.2978V99.6029C273.403 101.304 272.433 102.263 270.743 102.263H267.353C265.652 102.263 264.693 101.292 264.693 99.6029V48.9959C264.693 47.2946 265.664 46.3362 267.353 46.3362H272.073C273.763 46.3362 274.973 47.5462 275.584 48.9959L283.575 68.4887C283.814 69.0878 284.174 69.6988 284.665 69.6988C285.156 69.6988 285.516 69.0878 285.755 68.4887L293.747 48.9959C294.358 47.5462 295.568 46.3362 297.257 46.3362H301.977C303.679 46.3362 304.637 47.3066 304.637 48.9959V99.6029C304.649 101.304 303.679 102.263 301.977 102.263Z" fill="white"/>
<path d="M354.046 78.2891H331.402C329.701 78.2891 328.742 79.2596 328.742 80.9489V83.8482C328.742 89.2995 332.612 94.8706 339.393 94.8706C345.683 94.8706 349.445 90.5096 351.506 87.73C352.357 86.52 353.926 86.4001 355.136 87.2508L357.796 89.1917C359.246 90.2819 359.006 91.9712 358.395 92.9417C355.484 97.6621 349.553 103.473 339.381 103.473C327.401 103.473 319.409 94.2716 319.409 83.8602V64.7269C319.409 54.3155 327.401 45.1143 339.381 45.1143C351.362 45.1143 359.353 54.3155 359.353 64.7269V72.9577C359.377 76.3602 357.437 78.2891 354.046 78.2891ZM350.044 64.7388C350.044 59.2876 346.175 53.7165 339.393 53.7165C332.612 53.7165 328.742 59.2876 328.742 64.7388V67.6382C328.742 69.3395 329.713 70.2979 331.402 70.2979H347.385C349.086 70.2979 350.044 69.3275 350.044 67.6382V64.7388Z" fill="white"/>
<path d="M412.644 102.263H408.655C406.953 102.263 405.995 101.292 405.995 99.603V64.7388C405.995 59.2876 402.125 53.7165 395.344 53.7165C388.563 53.7165 384.693 59.2876 384.693 64.7388V99.603C384.693 101.304 383.723 102.263 382.033 102.263H378.044C376.342 102.263 375.384 101.292 375.384 99.603V48.996C375.384 47.2948 376.354 46.3363 378.044 46.3363H381.195C382.165 46.3363 382.764 46.8155 383.136 47.4266C383.615 48.2772 384.346 48.2772 384.837 47.9058C387.017 46.5759 390.528 45.1143 395.368 45.1143C407.349 45.1143 415.34 54.3155 415.34 64.7269V99.591C415.304 101.304 414.346 102.263 412.644 102.263Z" fill="white"/>
<path d="M461.322 54.3154H451.27C449.569 54.3154 448.611 55.2859 448.611 56.9752V99.5909C448.611 101.292 447.64 102.251 445.951 102.251H442.081C440.38 102.251 439.421 101.28 439.421 99.5909V56.9752C439.421 55.2739 438.451 54.3154 436.762 54.3154H426.71C425.009 54.3154 424.05 53.345 424.05 51.6557V48.9959C424.05 47.2946 425.02 46.3362 426.71 46.3362H461.334C463.036 46.3362 463.994 47.3066 463.994 48.9959V51.6557C463.982 53.3569 463.012 54.3154 461.322 54.3154Z" fill="white"/>
<path fill-rule="evenodd" clip-rule="evenodd" d="M93.2042 30.7612C93.8272 29.1798 93.2402 27.3826 91.8145 26.4481C90.7362 25.7413 90.7362 22.7341 95.5764 24.6031C108.36 29.3834 118.28 40.7173 120.532 55.1781C121.084 58.6526 121.155 62.0791 120.808 65.4097C120.724 66.1645 121.371 66.7995 122.114 66.6797L122.437 66.6318C124.103 66.3802 125.373 64.9665 125.469 63.2652C125.54 61.9713 128.14 60.4737 128.955 65.6134C131.195 79.0679 126.343 93.3131 114.973 102.526C112.242 104.743 109.294 106.528 106.227 107.882C105.532 108.193 105.305 109.068 105.784 109.655L105.964 109.883C107.042 111.2 108.887 111.584 110.397 110.829C111.547 110.254 114.147 111.752 110.133 115.01C99.578 123.684 84.8177 126.596 71.1595 121.36C67.8768 120.102 64.8576 118.437 62.1499 116.46C61.5389 116.017 60.6643 116.256 60.3888 116.963L60.2809 117.239C59.6579 118.82 60.245 120.617 61.6707 121.552C62.749 122.259 62.749 125.266 57.8968 123.397C45.1132 118.617 35.2051 107.283 32.9168 92.8338C32.3656 89.3714 32.2937 85.9449 32.6412 82.6022C32.7251 81.8474 32.0781 81.2125 31.3353 81.3323L31.0358 81.3802C29.3704 81.6318 28.1005 83.0455 28.0046 84.7468C27.9208 86.0287 25.3329 87.5383 24.5302 82.3986C22.2898 68.9441 27.142 54.6989 38.4998 45.4857C41.2314 43.2692 44.1787 41.4841 47.2458 40.1302C47.9407 39.8187 48.1683 38.9441 47.6891 38.3571L47.5094 38.1294C46.4311 36.8115 44.5861 36.4282 43.0765 37.1829C41.9263 37.77 39.3265 36.2604 43.3401 33.0016C53.8952 24.3275 68.6555 21.4162 82.3137 26.6518C85.5964 27.9098 88.6156 29.5751 91.3232 31.552C91.9343 31.9953 92.8089 31.7556 93.0844 31.0488L93.2042 30.7612ZM60.1851 114.064C60.7482 114.303 61.3952 114.016 61.6228 113.441L61.6348 113.405C62.4854 111.2 61.9702 107.99 59.3464 106.372C49.8097 100.466 45.4846 88.1374 49.4024 77.9058C51.8105 71.6398 56.0158 67.3147 61.3832 64.619C62.7011 63.9481 63.336 64.7987 62.5813 65.6494C60.5445 67.9736 58.9511 70.5974 57.717 73.6286C51.6787 88.377 58.9631 105.677 73.1963 111.68C73.388 111.764 73.5677 111.847 73.7594 111.931C74.1787 112.123 74.61 112.303 75.0413 112.482C84.7458 116.196 95.4207 114.232 103.172 108.409C103.663 108.037 103.735 107.331 103.352 106.851L103.328 106.827C101.842 104.982 98.8112 103.832 96.0916 105.282C86.2194 110.589 73.364 108.181 66.463 99.6629C62.2338 94.4393 60.6044 88.6286 60.9399 82.6382C61.0238 81.1406 62.0781 81.0327 62.4375 82.099C63.4319 85.0224 64.9175 87.718 66.9183 90.3059C76.6827 102.91 95.3009 105.246 107.617 95.9249C107.857 95.7452 108.096 95.5655 108.336 95.3858C108.636 95.1701 108.923 94.9544 109.211 94.7268C117.274 88.1973 120.904 77.9656 119.742 68.3451C119.67 67.734 119.095 67.3147 118.484 67.4105L118.424 67.4225C116.088 67.7819 113.572 69.8427 113.476 72.9217C113.14 84.1238 104.61 94.0439 93.7913 95.7572C87.1659 96.8115 81.2953 95.3259 76.2873 92.0311C75.0533 91.2164 75.4606 90.246 76.5749 90.4616C79.594 91.0727 82.6731 91.1326 85.9199 90.6893C101.699 88.5447 113.032 73.5807 111.14 58.2572C111.104 58.0056 111.08 57.754 111.056 57.5024C111.008 57.0951 110.972 56.6877 110.912 56.2684C109.294 46.0128 102.238 37.746 93.312 33.9361C92.749 33.6965 92.102 33.9841 91.8744 34.5591L91.8624 34.5951C91.0117 36.7996 91.5269 40.0104 94.1507 41.6278C103.687 47.5344 108.013 59.8626 104.095 70.0942C101.687 76.3602 97.4814 80.6853 92.114 83.381C90.7961 84.0519 90.1611 83.2013 90.9159 82.3506C92.9526 80.0263 94.5461 77.4025 95.7801 74.3714C101.818 59.623 94.5341 42.3227 80.3009 36.3203C80.1092 36.2365 79.9295 36.1526 79.7378 36.0687C79.3185 35.877 78.8871 35.6973 78.4558 35.5176C68.7514 31.8036 58.0765 33.7684 50.3129 39.6031C49.8217 39.9745 49.7498 40.6813 50.1332 41.1606L50.1571 41.1845C51.6428 43.0296 54.6739 44.1797 57.3936 42.7301C67.2658 37.4226 80.1212 39.8307 87.0221 48.3491C91.2514 53.5727 92.8807 59.3834 92.5453 65.3738C92.4614 66.8714 91.4071 66.9792 91.0477 65.9129C90.0533 62.9896 88.5676 60.3059 86.5669 57.7061C76.8025 45.1023 58.1843 42.766 45.868 52.0871C45.6284 52.2668 45.3888 52.4465 45.1492 52.6262C44.8496 52.8419 44.5621 53.0575 44.2746 53.2852C36.2115 59.8147 32.5813 70.0463 33.7434 79.6669C33.8153 80.278 34.3904 80.6973 35.0014 80.6014L35.0374 80.5894C37.3736 80.23 39.8896 78.1693 39.9854 75.0902C40.3209 63.8762 48.8512 53.9681 59.6939 52.2428C66.3193 51.1885 72.1899 52.6741 77.1979 55.9689C78.4319 56.7836 78.0245 57.754 76.9103 57.5384C73.8911 56.9273 70.8121 56.8674 67.5653 57.3107C51.7865 59.4553 40.4527 74.4193 42.3457 89.7428C42.3816 89.9944 42.4056 90.246 42.4295 90.4976C42.4774 90.9049 42.5134 91.3123 42.5853 91.7316C44.2027 101.999 51.2594 110.266 60.1851 114.064Z" fill="white"/>
</svg>
