<svg width="94" height="44" viewBox="0 0 94 44" fill="none" xmlns="http://www.w3.org/2000/svg">
<path d="M8 13.0966C8 10.2818 10.2195 8 12.9573 8H21.0368C24.6636 8 27.0628 11.8729 25.529 15.2519L17.4496 33.0515C15.2065 37.9931 8 36.3494 8 30.8962V13.0966Z" fill="#9FE3CD"/>
<path d="M48 30.9034C48 33.7182 45.7805 36 43.0427 36H34.9632C31.3364 36 28.9372 32.1271 30.471 28.7481L38.5504 10.9485C40.7935 6.00695 48 7.65063 48 13.1038V30.9034Z" fill="#9BE2EE"/>
<path d="M58 31C58 28.2386 60.2386 26 63 26H81C83.7614 26 86 28.2386 86 31C86 33.7614 83.7614 36 81 36H63C60.2386 36 58 33.7614 58 31Z" fill="#D1BEFB"/>
<path d="M58 13C58 10.2386 60.2386 8 63 8H81C83.7614 8 86 10.2386 86 13C86 15.7614 83.7614 18 81 18H63C60.2386 18 58 15.7614 58 13Z" fill="#B1CDFB"/>
</svg>
